<svg xmlns="http://www.w3.org/2000/svg" width="1200" height="630" viewBox="0 0 1200 630">
  <defs>
    <linearGradient id="bg" x1="0" y1="0" x2="1" y2="1">
      <stop offset="0%" stop-color="#0d0d11"/>
      <stop offset="100%" stop-color="#2e1065"/>
    </linearGradient>
  </defs>
  <rect width="1200" height="630" fill="url(#bg)"/>
  <g transform="translate(480,165)">
    <rect x="0" y="0" width="80" height="80" rx="16" fill="#7c3aed"/>
    <rect x="160" y="0" width="80" height="80" rx="16" fill="#a78bfa"/>
    <rect x="0" y="160" width="80" height="80" rx="16" fill="#a78bfa"/>
    <rect x="20" y="20" width="40" height="40" rx="8" fill="#0d0d11"/>
    <rect x="180" y="20" width="40" height="40" rx="8" fill="#0d0d11"/>
    <rect x="20" y="180" width="40" height="40" rx="8" fill="#0d0d11"/>
    <rect x="160" y="160" width="35" height="35" rx="8" fill="#7c3aed"/>
    <rect x="205" y="160" width="35" height="35" rx="8" fill="#5b21b6"/>
    <rect x="160" y="205" width="35" height="35" rx="8" fill="#5b21b6"/>
    <rect x="205" y="205" width="35" height="35" rx="8" fill="#7c3aed"/>
  </g>
  <text x="600" y="440" font-family="Arial, sans-serif" font-size="56" font-weight="800" fill="#ffffff" text-anchor="middle">QR Forge</text>
  <text x="600" y="490" font-family="Arial, sans-serif" font-size="24" fill="#c4b5fd" text-anchor="middle">Free Online QR Code Generator</text>
</svg>
